<svg xmlns="http://www.w3.org/2000/svg" viewBox="0 0 720 720"><defs><linearGradient id="a" x1="0" y1="0" x2="0" y2="1"><stop stop-color="#14b8a6"/><stop offset="1" stop-color="#0f172a"/></linearGradient></defs><rect width="720" height="720" fill="url(#a)"/><circle cx="360" cy="90" r="34" fill="#fff"/><text x="347" y="104" font-family="Arial" font-size="34" font-weight="700" fill="#10b981">E</text><rect x="110" y="145" width="500" height="90" rx="12" fill="white"/><text x="155" y="200" font-family="Arial" font-size="44" font-weight="900" fill="#0f4c5c">RIDE ELECTRIC.</text><text x="180" y="238" font-family="Arial" font-size="34" font-weight="900" fill="#0ea5e9">STUDY GREEN.</text><g font-family="Arial" font-weight="800"><rect x="90" y="285" width="150" height="70" rx="35" fill="#ecfeff"/><text x="130" y="330" font-size="26" fill="#065f46">90%</text><rect x="285" y="285" width="150" height="70" rx="35" fill="#ecfeff"/><text x="320" y="330" font-size="26" fill="#065f46">0.50</text><rect x="480" y="285" width="150" height="70" rx="35" fill="#ecfeff"/><text x="523" y="330" font-size="26" fill="#065f46">5K+</text></g><rect x="145" y="430" width="430" height="135" rx="28" fill="#fff"/><circle cx="220" cy="575" r="36" fill="#0f172a"/><circle cx="500" cy="575" r="36" fill="#0f172a"/><text x="275" y="508" font-family="Arial" font-size="28" font-weight="800" fill="#065f46">EcoRide Campus Express</text><rect x="210" y="625" width="300" height="58" rx="29" fill="#fff"/><text x="250" y="663" font-family="Arial" font-size="21" font-weight="900" fill="#065f46">DOWNLOAD THE APP →</text></svg>