<svg xmlns="http://www.w3.org/2000/svg" viewBox="0 0 900 620"><defs><linearGradient id="g" x1="0" x2="1"><stop stop-color="#bbf7d0"/><stop offset="1" stop-color="#bae6fd"/></linearGradient></defs><rect width="900" height="620" rx="38" fill="url(#g)"/><circle cx="740" cy="120" r="70" fill="#fef3c7"/><path d="M0 430h900v190H0z" fill="#064e3b"/><path d="M90 430c80-70 160-100 260-65s190 18 280-28 170-17 270 60v33H90z" fill="#22c55e" opacity=".75"/><rect x="150" y="235" width="560" height="170" rx="75" fill="#fff" stroke="#0f172a" stroke-width="8"/><path d="M240 235l70-80h245l80 80z" fill="#e0f2fe" stroke="#0f172a" stroke-width="8"/><rect x="330" y="170" width="115" height="64" rx="12" fill="#38bdf8"/><rect x="462" y="170" width="110" height="64" rx="12" fill="#38bdf8"/><circle cx="285" cy="410" r="58" fill="#0f172a"/><circle cx="285" cy="410" r="25" fill="#e2e8f0"/><circle cx="585" cy="410" r="58" fill="#0f172a"/><circle cx="585" cy="410" r="25" fill="#e2e8f0"/><text x="365" y="340" font-family="Arial" font-size="40" font-weight="700" fill="#065f46">EcoRide</text><path d="M120 210h-45m45 36H45m75 36H70" stroke="#0ea5e9" stroke-width="13" stroke-linecap="round"/><path d="M755 275c0-60 45-110 102-110" stroke="#065f46" stroke-width="18" fill="none" stroke-linecap="round"/><circle cx="852" cy="164" r="23" fill="#10b981"/></svg>