<svg xmlns="http://www.w3.org/2000/svg" viewBox="0 0 900 520"><rect width="900" height="520" rx="28" fill="#fff"/><rect x="70" y="60" width="340" height="400" rx="32" fill="#f8fafc" stroke="#cbd5e1"/><rect x="490" y="60" width="340" height="400" rx="32" fill="#020617"/><circle cx="240" cy="132" r="48" fill="#065f46"/><text x="225" y="148" font-family="Arial" font-size="44" font-weight="700" fill="white">E</text><text x="170" y="210" font-family="Arial" font-size="25" font-weight="700" fill="#0f172a">@ecoride.app</text><text x="130" y="244" font-family="Arial" font-size="16" fill="#64748b">Smart EV rentals for students</text><g fill="#10b981"><rect x="105" y="300" width="80" height="80" rx="12"/><rect x="200" y="300" width="80" height="80" rx="12"/><rect x="295" y="300" width="80" height="80" rx="12"/></g><circle cx="660" cy="132" r="48" fill="#10b981"/><text x="645" y="148" font-family="Arial" font-size="44" font-weight="700" fill="white">E</text><text x="585" y="210" font-family="Arial" font-size="25" font-weight="700" fill="white">@ecoride.app</text><text x="570" y="244" font-family="Arial" font-size="16" fill="#a7f3d0">Ride Electric. Study Green.</text><g fill="#064e3b"><rect x="525" y="300" width="80" height="80" rx="12"/><rect x="620" y="300" width="80" height="80" rx="12"/><rect x="715" y="300" width="80" height="80" rx="12"/></g></svg>